<svg width="100%" height="100%" viewBox="0 0 1192 224" fill="none" xmlns="http://www.w3.org/2000/svg">
<path d="M129 32L130.8 33.2L162.4 130.8C167.333 146.133 171.667 156.933 175.4 163.2C179.133 169.467 184 172.867 190 173.4V176.4C186.133 176.4 181.4 176.133 175.8 175.6C170.2 175.2 166.267 175 164 175C161.733 175 157.6 175.2 151.6 175.6C145.6 176.133 140.667 176.4 136.8 176.4V173.4C140.8 173.267 143.8 172.2 145.8 170.2C147.8 168.2 148.8 164.867 148.8 160.2C148.8 154.6 147.333 146.733 144.4 136.6L140.6 123.8H97.2C95.4667 123.8 94.3333 124.4 93.8 125.6C84.4667 146.933 76.0667 164.4 68.6 178C61.1333 191.6 54.4667 201.6 48.6 208C42.6 214.4 37.4667 218.6 33.2 220.6C28.9333 222.733 24.2 223.8 19 223.8C12.7333 223.8 6.4 221.867 -1.43051e-06 218V215.4C13.2 213.667 25.3333 208.067 36.4 198.6C47.3333 189.267 58.2667 175.2 69.2 156.4C80.2667 137.467 92.5333 111.8 106 79.4C110.933 67.4 113.4 58.1333 113.4 51.6C113.4 46 111.667 41.9333 108.2 39.4C104.867 36.8667 99.6667 35.3333 92.6 34.8V31.6C96.8667 31.6 101.467 31.8 106.4 32.2C111.333 32.4667 114.733 32.6 116.6 32.6C122.067 32.6 126.2 32.4 129 32ZM98.2 119.2C98.7333 119.2 101 119.133 105 119C109 118.733 114.133 118.533 120.4 118.4C126.8 118.133 133 118 139 118L121.8 57.4C111.933 82.3333 103.733 102.467 97.2 117.8C96.8 118.733 97.1333 119.2 98.2 119.2ZM262.878 173.4V176.4C259.145 176.4 253.745 176.133 246.678 175.6C239.611 175.2 235.011 175 232.878 175C230.745 175 226.145 175.2 219.078 175.6C212.145 176.133 206.745 176.4 202.878 176.4V173.4C205.678 173.267 207.878 173 209.478 172.6C211.211 172.2 212.945 171.333 214.678 170C216.545 168.667 217.945 166.6 218.878 163.8C219.945 161 220.945 157.267 221.878 152.6C222.811 147.933 223.411 142.067 223.678 135C224.078 127.8 224.278 119.2 224.278 109.2V39H207.278C198.211 39 191.078 40.8 185.878 44.4C180.811 48 176.611 54.8 173.278 64.8L170.078 64.2C171.011 53 171.478 40.6 171.478 27H174.278C174.278 27.4 174.345 27.9333 174.478 28.6C174.611 29.1333 175.345 29.8667 176.678 30.8C178.011 31.7333 179.811 32.2 182.078 32.2C190.878 32.2 201.278 32.3333 213.278 32.6C225.411 32.8667 232.211 33 233.678 33C235.545 33 242.678 32.8667 255.078 32.6C267.478 32.3333 277.478 32.2 285.078 32.2C287.345 32.2 289.211 31.8 290.678 31C292.145 30.0667 293.011 29.2 293.278 28.4L293.678 27L296.878 27.6C295.945 32.9333 295.145 38.8 294.478 45.2C293.945 51.6 293.545 56.6667 293.278 60.4L293.078 66.2L289.878 66.8C287.078 56.5333 283.478 49.3333 279.078 45.2C274.811 41.0667 268.411 39 259.878 39H241.478V109.2C241.478 124.133 241.811 135.933 242.478 144.6C243.278 153.133 244.678 159.467 246.678 163.6C248.811 167.733 250.945 170.333 253.078 171.4C255.211 172.333 258.478 173 262.878 173.4ZM343.338 169.8C351.338 170.867 357.871 171.4 362.938 171.4C367.204 171.4 371.071 170.533 374.538 168.8C378.004 167.067 380.938 165 383.338 162.6C385.738 160.2 388.271 156.467 390.938 151.4C393.604 146.2 395.738 141.6 397.338 137.6C398.938 133.6 401.204 127.733 404.138 120L407.538 120.8C403.138 141.067 400.938 159 400.938 174.6C392.938 175.4 385.271 175.8 377.938 175.8C371.404 175.8 362.738 175.667 351.938 175.4C341.271 175.133 334.604 175 331.938 175C329.671 175 325.738 175.2 320.138 175.6C314.538 176.133 309.804 176.4 305.938 176.4V173.4C310.738 173.267 314.138 172.067 316.138 169.8C318.271 167.533 320.004 161.467 321.338 151.6C322.671 141.6 323.337 126.133 323.337 105.2V93.2C323.337 79.3333 323.004 68.4 322.338 60.4C321.804 52.2667 320.738 46.4 319.138 42.8C317.671 39.2 316.204 37 314.738 36.2C313.271 35.2667 311.004 34.7333 307.938 34.6V31.6C311.671 31.6 316.004 31.8667 320.938 32.4C326.004 32.8 329.671 33 331.938 33C334.204 33 338.671 32.8 345.338 32.4C352.004 31.8667 357.204 31.6 360.938 31.6V34.6C357.071 34.7333 354.071 35.3333 351.938 36.4C349.804 37.3333 347.604 39.6 345.338 43.2C343.204 46.8 341.671 52.6667 340.738 60.8C339.938 68.9333 339.538 79.7333 339.538 93.2V105.2C339.538 118.667 339.804 130.8 340.338 141.6C341.004 152.267 341.671 159.6 342.338 163.6L343.338 169.8ZM479.391 32L481.191 33.2L512.791 130.8C517.724 146.133 522.057 156.933 525.791 163.2C529.524 169.467 534.391 172.867 540.391 173.4V176.4C536.524 176.4 531.791 176.133 526.191 175.6C520.591 175.2 516.657 175 514.391 175C512.124 175 507.991 175.2 501.991 175.6C495.991 176.133 491.057 176.4 487.191 176.4V173.4C491.191 173.267 494.191 172.2 496.191 170.2C498.191 168.2 499.191 164.867 499.191 160.2C499.191 154.6 497.724 146.733 494.791 136.6L490.991 123.8H447.591C445.857 123.8 444.724 124.4 444.191 125.6C434.857 146.933 426.457 164.4 418.991 178C411.524 191.6 404.857 201.6 398.991 208C392.991 214.4 387.857 218.6 383.591 220.6C379.324 222.733 374.591 223.8 369.391 223.8C363.124 223.8 356.791 221.867 350.391 218V215.4C363.591 213.667 375.724 208.067 386.791 198.6C397.724 189.267 408.657 175.2 419.591 156.4C430.657 137.467 442.924 111.8 456.391 79.4C461.324 67.4 463.791 58.1333 463.791 51.6C463.791 46 462.057 41.9333 458.591 39.4C455.257 36.8667 450.057 35.3333 442.991 34.8V31.6C447.257 31.6 451.857 31.8 456.791 32.2C461.724 32.4667 465.124 32.6 466.991 32.6C472.457 32.6 476.591 32.4 479.391 32ZM448.591 119.2C449.124 119.2 451.391 119.133 455.391 119C459.391 118.733 464.524 118.533 470.791 118.4C477.191 118.133 483.391 118 489.391 118L472.191 57.4C462.324 82.3333 454.124 102.467 447.591 117.8C447.191 118.733 447.524 119.2 448.591 119.2ZM726.628 206.2L727.828 208.8C725.428 211.067 721.428 212.2 715.828 212.2C710.495 212.2 705.428 211 700.628 208.6C695.828 206.2 691.095 202.933 686.428 198.8C681.895 194.667 675.895 188.067 668.428 179C660.961 170.067 653.495 160.8 646.028 151.2C638.561 141.467 627.828 128 613.828 110.8C599.828 93.4667 585.628 76.3333 571.228 59.4L570.028 59.8C570.428 101.933 570.628 125.067 570.628 129.2C570.761 141.333 571.695 150.6 573.428 157C575.295 163.4 577.628 167.667 580.428 169.8C583.361 171.8 587.561 173 593.028 173.4V176.4C589.161 176.4 584.361 176.133 578.628 175.6C572.895 175.2 568.895 175 566.628 175C564.361 175 561.095 175.2 556.828 175.6C552.561 176.133 548.561 176.4 544.828 176.4V173.4C549.361 173.267 552.828 172.2 555.228 170.2C557.628 168.067 559.561 163.733 561.028 157.2C562.495 150.667 563.228 141.333 563.228 129.2L563.028 44.4C543.428 18.6667 524.828 5.8 507.228 5.8C500.161 5.8 493.161 8.19999 486.228 13C484.895 11.8 484.028 10.9333 483.628 10.4C484.561 9.59999 485.828 8.66666 487.428 7.6C489.028 6.4 492.628 4.86666 498.228 3C503.828 0.99999 509.628 -1.28746e-05 515.628 -1.28746e-05C524.161 -1.28746e-05 532.095 1.46665 539.428 4.39999C546.761 7.33333 553.295 11.2667 559.028 16.2C564.761 21 571.361 27.9333 578.828 37C586.428 45.9333 593.561 55 600.228 64.2C607.028 73.4 616.228 85.3333 627.828 100C639.561 114.667 651.361 128.733 663.228 142.2V78.8C663.228 67.0667 662.295 58 660.428 51.6C658.695 45.0667 656.295 40.7333 653.228 38.6C650.295 36.3333 646.161 35 640.828 34.6V31.6C644.561 31.6 649.361 31.8667 655.228 32.4C661.095 32.8 665.095 33 667.228 33C669.361 33 672.561 32.8 676.828 32.4C681.095 31.8667 685.161 31.6 689.028 31.6V34.6C684.628 34.7333 681.161 35.9333 678.628 38.2C676.228 40.4667 674.295 44.8667 672.828 51.4C671.361 57.8 670.628 66.9333 670.628 78.8L670.028 154C693.761 189.333 711.295 207 722.628 207C723.695 207 725.028 206.733 726.628 206.2ZM739.441 161.6C740.107 162.533 741.107 163.733 742.441 165.2C743.774 166.667 746.974 168.667 752.041 171.2C757.107 173.6 762.707 174.8 768.841 174.8C784.707 174.8 796.907 167.8 805.441 153.8C814.107 139.667 818.441 121.333 818.441 98.8C818.441 54.9333 799.574 33 761.841 33C757.307 33 753.174 33.6 749.441 34.8C745.707 35.8667 743.174 36.9333 741.841 38L739.641 39.6C736.841 45.7333 735.441 65.6 735.441 99.2C735.441 113.6 735.774 126 736.441 136.4C737.107 146.8 737.774 153.6 738.441 156.8L739.441 161.6ZM727.041 175C724.907 175 721.107 175.2 715.641 175.6C710.174 176.133 705.507 176.4 701.641 176.4V173.4C706.441 173.267 709.841 172.067 711.841 169.8C713.974 167.533 715.707 161.467 717.041 151.6C718.374 141.6 719.041 126.133 719.041 105.2V93.2C719.041 79.3333 718.707 68.4 718.041 60.4C717.507 52.2667 716.441 46.4 714.841 42.8C713.374 39.2 711.907 37 710.441 36.2C708.974 35.2667 706.707 34.7333 703.641 34.6V31.6C707.507 31.6 711.841 31.8667 716.641 32.4C721.441 32.8 724.907 33 727.041 33C729.441 33 735.507 32.2667 745.241 30.8C754.974 29.3333 761.707 28.6 765.441 28.6C775.441 28.6 784.707 29.8 793.241 32.2C801.907 34.6 809.841 38.4 817.041 43.6C824.374 48.6667 830.107 55.6667 834.241 64.6C838.374 73.5333 840.441 84 840.441 96C840.441 122 833.374 142.4 819.241 157.2C805.107 172 788.107 179.4 768.241 179.4C761.574 179.4 753.507 178.667 744.041 177.2C734.574 175.733 728.907 175 727.041 175ZM876.859 33C878.193 33 885.459 32.8667 898.659 32.6C911.859 32.3333 924.259 32.2 935.859 32.2C938.126 32.2 939.926 31.8 941.259 31C942.593 30.0667 943.326 29.2 943.459 28.4L943.659 27H946.459L947.859 70.2L945.059 70.8C941.193 59.0667 936.793 50.5333 931.859 45.2C927.059 39.8667 919.726 37.2 909.859 37.2L888.459 37.6C885.926 47.0667 884.593 66.1333 884.459 94.8H903.259C907.793 94.8 911.726 94.2 915.059 93C918.393 91.8 921.059 89.9333 923.059 87.4C925.059 84.8667 926.526 82.7333 927.459 81C928.393 79.2667 929.526 76.6667 930.859 73.2L933.659 74C932.593 83.8667 932.059 91.5333 932.059 97C932.059 100.067 933.126 108.8 935.259 123.2L932.659 124C931.726 121.2 930.993 119.2 930.459 118C930.059 116.667 928.993 114.6 927.259 111.8C925.526 109 923.659 106.933 921.659 105.6C919.659 104.133 916.859 102.8 913.259 101.6C909.659 100.267 905.526 99.6 900.859 99.6H884.459C884.459 116.667 884.726 131 885.259 142.6C885.926 154.2 886.593 161.6 887.259 164.8L888.259 169.4C897.059 170.467 904.126 171 909.459 171C919.326 171 927.259 167.467 933.259 160.4C939.393 153.2 945.526 141.6 951.659 125.6L954.459 126.6C951.126 143 949.459 159 949.459 174.6C939.993 175.533 930.126 176 919.859 176C913.859 176 905.726 175.8 895.459 175.4C885.326 175.133 879.126 175 876.859 175C874.593 175 870.659 175.2 865.059 175.6C859.459 176.133 854.726 176.4 850.859 176.4V173.4C855.659 173.267 859.059 172.067 861.059 169.8C863.193 167.533 864.926 161.467 866.259 151.6C867.593 141.6 868.259 126.133 868.259 105.2V93.2C868.259 79.3333 867.926 68.4 867.259 60.4C866.726 52.2667 865.659 46.4 864.059 42.8C862.593 39.2 861.126 37 859.659 36.2C858.193 35.2667 855.926 34.7333 852.859 34.6V31.6C856.593 31.6 860.926 31.8667 865.859 32.4C870.926 32.8 874.593 33 876.859 33ZM1032.24 32.4C1044.9 32.4 1054.77 35.2 1061.84 40.8C1069.04 46.2667 1072.64 54.6667 1072.64 66C1072.64 76.6667 1069.3 85.7333 1062.64 93.2C1056.1 100.533 1048.04 105.667 1038.44 108.6C1051.24 132.733 1061.9 149.6 1070.44 159.2C1078.97 168.667 1088.57 173.4 1099.24 173.4V176.4C1095.64 176.8 1091.64 177.4 1087.24 178.2C1082.84 179 1079.5 179.4 1077.24 179.4C1065.64 179.4 1056.5 174.933 1049.84 166C1043.3 157.067 1034.97 138.8 1024.84 111.2H1023.04C1014.77 111.2 1007.84 110.667 1002.24 109.6V123.4C1002.24 141.933 1003.77 154.8 1006.84 162C1009.9 169.067 1016.1 172.867 1025.44 173.4V176.4C1023.04 176.4 1018.37 176.133 1011.44 175.6C1004.5 175.2 999.104 175 995.238 175C992.971 175 988.904 175.2 983.038 175.6C977.171 176.133 972.304 176.4 968.438 176.4V173.4C973.238 173.267 976.638 172.067 978.638 169.8C980.771 167.533 982.504 161.467 983.838 151.6C985.171 141.6 985.837 126.133 985.837 105.2V93.2C985.837 79.3333 985.504 68.4 984.838 60.4C984.304 52.2667 983.238 46.4 981.638 42.8C980.171 39.2 978.704 37 977.238 36.2C975.771 35.2667 973.504 34.7333 970.438 34.6V31.6C974.171 31.6 978.504 31.8667 983.438 32.4C988.504 32.8 992.171 33 994.438 33C998.838 33 1005.17 32.9333 1013.44 32.8C1021.84 32.5333 1028.1 32.4 1032.24 32.4ZM1005.84 37.6C1003.44 52.4 1002.24 72.6667 1002.24 98.4V103.4C1008.37 105.667 1015.17 106.8 1022.64 106.8C1030.9 106.8 1038.04 103.6 1044.04 97.2C1050.04 90.8 1053.04 81.2 1053.04 68.4C1053.04 47.3333 1043.44 36.8 1024.24 36.8C1015.04 36.8 1008.9 37.0667 1005.84 37.6ZM1141.26 178C1128.86 178 1116.13 176.8 1103.06 174.4C1103.06 165.333 1102.93 157 1102.66 149.4C1102.53 141.667 1102.39 136.267 1102.26 133.2L1101.86 128.4L1105.26 127.6C1107.66 134.533 1109.86 140.333 1111.86 145C1113.99 149.533 1116.66 154.133 1119.86 158.8C1123.06 163.467 1126.79 167 1131.06 169.4C1135.33 171.667 1140.13 172.8 1145.46 172.8C1153.73 172.8 1160.46 170.333 1165.66 165.4C1170.86 160.467 1173.46 153.733 1173.46 145.2C1173.46 139.333 1171.73 134 1168.26 129.2C1164.93 124.4 1160.66 120.467 1155.46 117.4C1150.26 114.2 1144.66 110.8 1138.66 107.2C1132.79 103.6 1127.26 100.067 1122.06 96.6C1116.86 93.1333 1112.53 88.6667 1109.06 83.2C1105.73 77.6 1104.06 71.3333 1104.06 64.4C1104.06 55.3333 1107.79 47.3333 1115.26 40.4C1122.73 33.4667 1132.93 30 1145.86 30C1150.39 30 1155.46 30.5333 1161.06 31.6C1166.79 32.6667 1170.99 33.2 1173.66 33.2C1175.93 33.2 1177.79 32.6667 1179.26 31.6C1180.73 30.5333 1181.59 29.4667 1181.86 28.4L1182.46 27L1185.66 27.6C1183.26 40.2667 1182.06 55.4667 1182.06 73.2L1178.86 73.6C1175.39 60 1171.33 50.1333 1166.66 44C1162.13 37.7333 1155.39 34.6 1146.46 34.6C1139.13 34.6 1133.13 36.8 1128.46 41.2C1123.93 45.4667 1121.66 50.8667 1121.66 57.4C1121.66 62.2 1122.93 66.6 1125.46 70.6C1128.13 74.6 1131.53 78.0667 1135.66 81C1139.79 83.9333 1144.33 86.8 1149.26 89.6C1154.19 92.2667 1159.13 95.0667 1164.06 98C1169.13 100.933 1173.73 104.133 1177.86 107.6C1181.99 110.933 1185.33 115 1187.86 119.8C1190.53 124.6 1191.86 129.933 1191.86 135.8C1191.86 148.6 1187.39 158.867 1178.46 166.6C1169.66 174.2 1157.26 178 1141.26 178Z" fill="white"/>
</svg>
